<svg width="338" height="426" viewBox="0 0 338 426" fill="none" xmlns="http://www.w3.org/2000/svg">
<path d="M233.651 173.151C238.583 166.361 238.583 156.253 235.158 148.256C231.869 140.26 225.704 134.225 219.402 129.095C212.826 123.815 205.427 119.289 197.207 118.685C193.782 118.383 190.219 118.987 187.342 121.25C183.506 124.267 182.136 129.85 181.999 134.98C181.862 139.506 182.273 144.032 183.917 148.256C188.027 159.572 198.988 173 209.811 176.47C217.621 178.884 226.389 176.47 233.651 173.151Z" fill="#DDEDED"/>
<path d="M285.983 143.882C278.447 137.243 275.707 125.927 276.94 115.517C278.721 99.5244 286.668 82.3247 298.998 72.5178C303.52 68.8968 309.411 66.7846 314.891 68.2934C326.126 71.4617 329.277 86.3983 327.496 97.2613C325.167 111.443 316.124 123.966 306.808 133.924C301.19 139.808 294.203 144.787 285.983 143.882Z" fill="#FF9933"/>
<path d="M269.545 88.2086C266.394 87.3034 262.284 84.4368 260.914 81.4193C253.516 64.3705 252.831 43.2481 261.736 25.7466C266.531 16.3924 275.437 5.98206 285.438 1.60669C290.233 -0.505548 296.262 -0.807297 300.372 2.36107C305.578 6.2838 306.948 14.431 307.77 20.466C308.729 27.1045 308.592 33.8938 307.633 40.5323C305.578 53.8093 300.235 66.9353 291.466 77.6474C290.096 79.3071 288.726 80.8158 287.219 82.3245C283.931 85.4929 277.903 88.5104 269.545 88.2086Z" fill="#0099DD"/>
<path d="M294.344 171.039C293.111 169.38 292.152 166.211 292.563 164.25C294.755 152.331 301.469 140.563 311.47 134.377C316.814 131.058 324.623 128.794 330.788 130.001C333.802 130.605 336.679 132.717 337.639 135.886C338.872 139.959 336.679 144.938 335.172 148.408C333.391 152.331 331.062 155.952 328.459 159.271C323.116 165.759 316.128 170.889 308.456 173.453C307.223 173.906 306.127 174.208 304.894 174.359C302.154 174.962 298.181 174.208 294.344 171.039Z" fill="#EFF5F9"/>
<path d="M239.814 67.8408C236.937 63.3146 233.375 59.3918 229.265 56.3743C219.949 49.4341 203.919 45.8131 195.972 57.2796C192.136 62.7111 193.232 70.4057 195.15 76.8933C200.22 93.1877 210.358 107.37 223.648 116.573C231.457 122.005 243.377 124.871 248.994 114.461C252.556 107.973 250.09 97.714 248.72 90.7738C247.076 82.4756 244.199 74.4793 239.814 67.8408Z" fill="#FF9933"/>
<path d="M254.337 211.926C253.378 187.484 252.419 162.137 247.761 137.696C242.966 112.952 231.457 80.8161 213.646 65.1252L214.469 63.9182C232.416 79.9109 244.062 112.198 248.994 137.243C253.789 161.685 254.748 187.183 255.707 211.624L254.337 211.926Z" fill="#A5C6C4"/>
<path d="M270.642 232.294H269.271C269.408 171.793 289.822 119.289 307.222 92.7349L308.318 93.6401C290.919 119.892 270.779 172.095 270.642 232.294Z" fill="#A5C6C4"/>
<path d="M263.655 227.315L263.518 214.189C262.833 141.166 262.285 77.9493 288.454 16.5435L289.687 17.147C263.518 78.2511 264.203 141.317 264.888 214.189L265.025 227.315H263.655Z" fill="#A5C6C4"/>
<path d="M246.94 230.785L245.569 230.634C247.899 192.916 228.17 154.744 197.617 137.545L198.165 136.187C229.403 153.688 249.406 192.614 246.94 230.785Z" fill="#A5C6C4"/>
<path d="M272.284 240.29L270.914 240.139C272.695 206.947 285.985 162.59 317.085 146.144L317.633 147.502C287.081 163.646 274.065 207.55 272.284 240.29Z" fill="#A5C6C4"/>
<path d="M221.453 201.666V229.125C221.59 300.338 242.415 311.05 242.415 311.05L288.312 310.899C288.312 310.899 309.137 300.187 309 228.974V201.515L221.453 201.666Z" fill="white"/>
<path d="M242.28 312.107L242.143 311.956C241.321 311.503 220.77 300.187 220.633 229.126V200.61L309.961 200.459V228.975C310.098 300.037 289.684 311.352 288.725 311.805L288.314 311.956L242.28 312.107ZM222.277 202.723V229.276C222.414 295.51 240.636 308.938 242.554 310.145L287.903 309.994C289.821 308.787 308.043 295.359 307.906 228.975V202.421L222.277 202.723Z" fill="#EFF5F9"/>
<path d="M100.067 249.042C114.864 233.803 124.18 213.284 135.552 194.727C147.06 176.32 162.405 158.668 182.408 154.745C196.109 152.029 210.22 156.254 222.277 163.948C234.333 171.643 244.335 182.355 253.514 193.822C271.325 215.698 287.355 239.687 299.686 265.638C311.742 290.985 323.662 319.651 326.265 348.317C326.95 356.012 326.95 364.159 324.073 371.25C320.237 381.057 312.153 388.752 303.111 392.373C275.572 403.085 231.182 405.951 194.464 406.404C150.759 407.007 108.972 406.706 77.3238 406.706C23.3432 406.706 -3.51006 403.386 1.28518 373.513C3.8883 357.37 26.2204 335.795 32.3857 329.609" fill="#EFF5F9"/>
<path d="M255.845 194.123C267.08 207.702 266.258 227.919 271.327 244.364C276.807 262.167 287.219 277.557 296.536 293.097C306.674 309.693 316.402 327.496 318.594 347.713C320.649 365.667 315.169 384.828 301.605 395.993C300.92 396.596 301.605 397.803 302.29 397.2C314.21 388.148 319.553 372.758 320.238 357.369C321.197 337.454 312.566 318.594 303.386 302.149C292.563 282.988 279.547 265.336 272.423 244.062C266.806 227.466 268.039 207.098 256.256 193.519C255.982 193.067 255.434 193.67 255.845 194.123Z" fill="white"/>
<path d="M255.98 206.948C254.884 223.695 261.597 238.933 267.488 253.87C270.914 262.319 273.517 271.22 276.668 279.669C279.819 287.967 284.34 295.209 288.998 302.602C307.083 331.117 307.357 369.289 290.094 398.257C289.546 399.162 290.779 399.916 291.328 399.011C306.946 373.815 308.453 340.17 296.397 312.862C292.698 304.563 287.354 297.472 282.97 289.778C278.175 281.329 275.435 271.673 272.147 262.319C265.844 244.214 255.843 226.863 256.802 206.797C256.665 206.495 255.98 206.495 255.98 206.948Z" fill="white"/>
<path d="M240.5 177.527C247.488 194.727 245.296 214.492 248.858 232.597C252.42 250.852 259.544 268.203 266.258 285.252C273.656 304.111 281.876 322.819 288.453 342.131C291.467 351.033 292.426 360.236 291.604 369.591C291.193 374.419 289.96 379.247 288.453 383.773C287.905 385.583 282.835 399.162 280.232 396.446C279.547 395.692 278.451 396.899 279.136 397.653C282.972 401.576 286.672 392.071 287.768 389.506C291.33 381.661 293.111 372.759 293.385 364.008C293.796 354.201 291.193 344.998 287.905 336.096C283.931 325.384 279.547 314.974 275.437 304.413C266.806 282.687 257.215 260.961 251.598 238.028C246.666 218.113 249.543 195.783 241.322 176.773C241.048 176.622 240.363 177.075 240.5 177.527Z" fill="white"/>
<path d="M223.101 165.457C232.006 183.411 232.828 203.629 233.239 223.544C233.65 244.063 235.02 263.677 240.637 283.441C246.529 304.111 255.434 323.574 259.955 344.696C262.148 354.503 262.97 364.762 262.559 374.871C262.285 380.152 261.325 385.281 260.092 390.26C259.407 392.976 258.448 395.692 257.352 398.257C256.941 399.313 256.393 400.369 255.845 401.425C255.16 403.085 254.064 404.292 252.42 404.895C252.694 404.292 251.735 403.839 251.461 404.443C250.776 405.8 251.187 406.706 252.42 407.46C254.475 408.516 256.53 403.386 257.215 402.179C261.736 393.278 263.655 383.169 264.203 373.061C265.436 349.072 256.804 326.139 249.132 304.262C244.885 292.192 240.911 279.971 238.308 267.298C235.842 254.775 235.157 241.951 234.746 229.126C234.198 207.4 234.198 184.317 223.786 165.005C223.512 164.552 222.827 165.005 223.101 165.457Z" fill="white"/>
<path d="M209.948 163.798C219.264 185.071 216.387 209.06 217.757 231.842C219.127 255.379 223.922 279.217 228.855 302.15C231.321 313.616 234.883 324.328 238.171 335.493C241.596 347.11 232.691 357.37 231.595 368.685C230.499 379.85 231.869 390.864 230.636 402.029C230.225 405.65 233.924 407.913 233.787 403.99C233.787 403.688 233.65 403.386 233.376 403.386C233.239 403.386 233.102 403.236 232.828 403.236C232.28 403.085 231.869 403.99 232.417 404.292C231.732 403.99 232.965 391.467 232.965 390.26C232.965 384.98 232.691 379.699 232.691 374.419C232.828 368.082 233.924 362.198 236.253 356.464C237.76 352.542 239.404 348.77 240.226 344.545C242.007 335.795 236.527 325.837 234.198 317.539C231.184 306.978 228.992 296.115 226.937 285.252C222.963 263.677 218.99 241.951 218.442 220.074C217.894 200.762 218.442 180.997 210.359 163.194C210.359 163.043 209.811 163.345 209.948 163.798Z" fill="white"/>
<path d="M201.18 161.383C205.29 184.618 202.824 208.154 201.18 231.54C200.358 242.554 199.81 253.718 200.221 264.883C200.632 276.199 202.413 287.363 204.468 298.528C206.523 309.994 208.441 321.31 210.085 332.927C211.044 340.169 213.647 348.769 208.852 354.955C206.112 358.425 203.783 361.895 201.728 365.969C194.466 380.905 194.74 399.765 201.865 414.701C202.139 415.305 202.824 415.305 203.235 414.852C204.331 413.645 205.427 412.589 206.523 411.382C207.071 410.779 206.386 409.873 205.701 410.326C204.468 411.382 203.235 412.438 202.002 413.645C202.413 413.645 202.824 413.796 203.372 413.796C194.877 395.691 197.069 373.211 208.989 357.671C210.77 355.257 213.099 352.843 213.236 349.523C213.51 344.545 212.551 339.566 211.866 334.738C210.222 322.517 208.167 310.296 205.975 298.226C203.783 286.609 202.002 274.992 201.591 263.072C201.18 251.304 202.002 239.385 202.824 227.617C204.331 205.438 205.975 183.26 201.865 161.383C201.865 160.629 201.043 160.93 201.18 161.383Z" fill="white"/>
<path d="M192.82 162.137C189.532 212.68 185.01 263.374 188.025 314.218C188.71 326.137 191.724 339.263 189.806 351.032C188.847 357.217 184.325 361.291 181.037 366.119C178.434 369.891 176.927 374.417 175.694 378.943C172.954 388.901 168.296 416.36 181.996 419.68C182.955 419.981 183.503 418.322 182.407 418.02C173.228 415.153 174.598 401.122 175.146 393.126C175.968 381.961 178.708 371.701 185.558 363.102C191.176 356.011 192.546 349.221 191.861 339.867C191.039 328.4 189.943 316.934 189.258 305.317C186.928 257.489 191.039 209.662 193.505 161.986C193.642 161.533 192.957 161.533 192.82 162.137Z" fill="white"/>
<path d="M183.505 155.952C170.764 204.835 169.393 256.133 169.667 306.676C169.804 319.349 169.941 332.023 170.215 344.847C170.215 347.563 170.352 350.128 170.215 352.843C170.078 358.426 166.927 361.594 163.228 364.612C159.255 367.78 155.556 371.25 152.405 375.324C143.362 386.941 141.444 408.818 156.515 415.758C157.337 416.211 158.022 414.551 157.2 414.098C147.883 408.969 145.28 397.2 148.431 386.79C151.72 375.776 160.625 370.043 168.023 362.801C174.326 356.615 171.997 344.545 171.86 336.398C171.723 324.328 171.449 312.409 171.449 300.339C171.175 251.908 173.093 203.176 184.327 156.254C184.327 155.65 183.642 155.499 183.505 155.952Z" fill="white"/>
<path d="M168.984 161.232C153.365 209.964 157.064 262.016 154.598 312.861C154.324 319.047 153.776 325.082 153.365 331.268C152.68 338.51 152.68 346.808 150.077 353.446C148.022 358.425 141.719 360.537 137.746 362.8C134.184 364.762 131.17 367.628 128.567 370.797C118.565 382.867 115.962 402.782 123.771 416.964C124.319 418.021 125.826 417.115 125.278 416.059C117.058 398.407 121.99 375.776 137.609 365.365C144.459 360.688 151.447 359.33 153.228 349.523C155.42 337.604 155.968 325.082 156.653 313.012C159.256 262.469 155.146 210.568 170.08 161.685C169.943 160.93 169.121 160.628 168.984 161.232Z" fill="white"/>
<path d="M151.719 165.91C135.963 218.414 140.758 274.539 131.168 328.251C129.935 334.889 128.839 341.98 126.099 348.166C123.495 354.05 117.878 357.068 112.672 359.783C104.041 364.159 97.1902 368.685 92.3949 378.039C88.0107 386.941 86.7777 397.502 86.6407 407.46C86.5036 415.758 89.9288 426.772 99.2453 425.263C100.204 425.112 99.9303 423.452 98.9713 423.452C84.3115 424.659 88.4217 399.011 90.4768 389.506C92.943 378.341 98.6973 369.439 108.151 364.31C115.549 360.236 123.221 357.671 127.743 349.222C130.072 344.847 130.894 339.566 131.853 334.738C133.223 328.1 134.319 321.461 135.278 314.823C142.265 265.336 139.114 214.341 152.952 166.212C152.952 165.457 151.993 165.155 151.719 165.91Z" fill="white"/>
<path d="M132.127 196.085C124.728 217.509 119.796 239.688 117.604 262.47C115.275 286.459 117.467 311.655 107.603 333.984C103.218 343.791 96.3681 350.731 88.2847 356.917C81.9824 361.594 75.1321 366.12 70.4738 372.91C61.7054 385.583 63.4865 404.292 75.8171 413.344C76.6391 413.948 77.5982 412.59 76.7761 411.986C69.5148 405.65 65.8156 396.295 67.0487 386.187C68.2817 376.531 75.4061 369.741 82.1194 364.31C88.0107 359.633 94.313 355.559 99.6563 349.977C105.822 343.64 109.795 335.191 112.535 326.591C118.974 306.827 117.467 285.101 119.111 264.582C120.892 241.347 125.688 218.263 132.949 196.387C133.086 195.783 132.264 195.481 132.127 196.085Z" fill="white"/>
<path d="M112.947 228.974C109.796 238.63 106.782 248.286 104.316 258.244C101.712 268.805 100.753 279.819 99.2464 290.531C96.3692 310.447 88.9709 328.099 75.9553 342.281C64.1727 355.106 46.6359 359.783 38.9635 376.832C33.4833 389.053 37.0454 405.95 49.239 411.08C50.061 411.382 50.4721 410.024 49.787 409.722C42.3887 405.498 38.4155 397.652 38.2785 388.6C38.1415 379.246 43.7587 370.797 49.924 365.063C56.3633 359.028 64.4467 355.407 71.297 349.674C76.7773 344.997 81.5725 339.264 85.8197 333.229C95.2732 319.65 99.3834 303.808 101.575 287.061C102.809 277.556 103.768 268.051 105.823 258.697C107.878 248.739 110.892 239.083 113.906 229.276C113.906 228.673 113.084 228.371 112.947 228.974Z" fill="white"/>
<path d="M97.0529 245.27C85.5444 280.424 74.1728 316.935 48.2785 342.584C42.2502 348.619 35.2629 352.843 28.4125 357.52C22.7953 361.292 19.6441 367.026 17.315 373.513C12.2457 388.299 12.9308 406.404 18.9591 420.737C19.3701 421.642 20.8772 421.039 20.4662 419.983C14.9859 403.085 13.7528 383.924 21.8362 367.629C25.8094 359.784 34.0298 356.464 40.4691 351.636C46.3604 347.261 51.7037 341.98 56.4989 336.247C78.009 311.353 88.6955 277.406 98.012 245.27C98.286 244.968 97.3269 244.666 97.0529 245.27Z" fill="white"/>
<path d="M78.9694 269.56C68.4199 278.763 65.6798 294.001 59.9255 306.826C52.3902 323.271 38.0045 334.285 25.6739 345.902C14.5763 356.313 4.02683 368.684 0.875682 384.828C-1.59044 396.898 1.01269 411.533 10.4661 419.076C11.1512 419.529 11.8362 418.473 11.2882 417.869C1.2867 407.308 -0.0833641 392.07 4.71187 378.038C10.0551 362.197 23.3448 350.73 34.7163 340.32C44.9918 330.966 55.1303 321.008 61.4326 307.731C67.4609 295.058 69.516 280.121 79.6545 270.314C80.2025 270.012 79.5175 269.107 78.9694 269.56Z" fill="white"/>
<g opacity="0.62">
<path opacity="0.62" d="M291.466 299.434C283.52 298.377 275.71 295.36 268.86 290.834C266.942 289.627 264.887 287.967 263.928 285.704C262.283 282.083 263.791 277.708 265.435 274.087C268.586 266.996 272.422 260.206 274.888 252.813C277.354 245.421 278.587 237.122 276.258 229.579C275.162 226.26 274.066 222.789 272.97 219.47C266.805 210.569 260.365 201.969 253.652 193.822C244.473 182.506 234.334 171.643 222.415 163.948C210.358 156.254 196.246 152.029 182.546 154.745C162.543 158.668 147.198 176.169 135.689 194.727C124.181 213.133 115.001 233.652 100.205 248.891L32.7975 329.608C26.4952 335.945 4.30017 357.369 1.69704 373.513C-3.09819 403.386 23.8921 406.705 77.7357 406.705C88.8332 406.705 101.164 406.705 114.453 406.705C121.578 403.99 128.702 401.274 135.689 398.558C147.609 394.032 160.077 389.355 172.544 391.014C180.217 391.92 186.93 395.993 194.602 396.295C203.782 396.597 212.824 396.898 222.004 397.351C222.552 397.351 223.1 397.351 223.511 397.049C224.607 396.144 223.511 394.183 222.689 392.825C221.319 390.109 222.415 386.639 224.47 384.527C226.525 382.415 229.128 381.358 231.868 380.453C255.844 371.25 279.409 359.632 300.371 343.791C305.989 339.566 311.606 334.738 314.894 328.1C318.182 321.461 318.456 312.56 314.072 306.977C308.455 300.339 299.412 300.49 291.466 299.434Z" fill="#D7E9F2"/>
</g>
<path d="M148.844 383.321C148.844 383.321 132.266 387.697 128.43 389.658C121.579 393.279 113.496 400.37 110.345 399.314C107.879 398.56 108.701 393.43 110.208 389.507C111.441 386.339 115.551 383.623 119.661 379.248C122.812 375.778 126.649 377.89 128.841 377.286C130.211 376.834 149.529 364.311 149.529 364.311" fill="#FFC8A3"/>
<path d="M155.283 342.132C158.434 345.602 174.19 345.904 174.19 345.904L136.924 374.872L139.938 386.489C139.938 386.489 258.449 373.061 298.592 338.964C319.691 321.01 315.032 305.621 307.634 295.965C286.398 267.902 196.385 288.27 196.385 288.27L150.076 284.498" fill="#021C3D"/>
<path d="M188.577 383.321C188.577 383.321 204.47 387.546 208.169 389.356C214.746 392.826 220.637 399.616 223.651 398.56C225.98 397.805 225.98 392.826 224.61 389.054C223.514 386.037 220.089 383.774 216.664 379.097C214.471 376.079 209.95 378.946 207.895 378.342C206.662 378.041 188.029 364.613 188.029 364.613" fill="#FFC8A3"/>
<path d="M184.191 342.131C181.04 345.602 170.902 350.279 170.902 350.279L202.55 374.871L199.536 386.489C199.536 386.489 84.7246 370.948 42.3896 340.019C21.4276 324.781 23.0717 306.676 31.8401 298.529C60.0635 271.673 143.089 288.118 143.089 288.118L183.232 290.231L184.191 342.131Z" fill="#021C3D"/>
<path d="M78.0098 292.948C78.0098 292.948 94.7246 295.361 118.29 310.449C129.935 317.993 202.549 374.872 202.549 374.872" stroke="#4E6A89" stroke-width="0.714065" stroke-miterlimit="10"/>
<path d="M261.465 292.948C261.465 292.948 244.75 295.361 221.185 310.449C209.54 317.993 170.219 348.922 170.219 348.922" stroke="#4E6A89" stroke-width="0.714065" stroke-miterlimit="10"/>
<path d="M137.885 375.778C150.352 379.248 169.533 381.511 169.533 381.511" stroke="#4E6A89" stroke-width="0.714065" stroke-miterlimit="10"/>
<path d="M120.755 173.907C120.207 212.078 109.246 258.698 105.41 283.592C117.056 296.417 151.855 303.055 171.858 304.413C191.861 305.771 229.127 300.339 244.883 283.14C244.883 283.14 228.442 169.38 221.318 153.086L193.916 119.894L153.773 123.816L120.755 173.907Z" fill="#FF9933"/>
<path d="M99.1091 176.472C108.152 177.227 117.194 177.679 126.236 178.886C132.539 175.114 138.841 171.342 145.006 167.269L156.789 119.743C156.789 119.743 130.484 122.61 109.933 145.241C103.904 151.88 96.643 162.894 89.9297 175.567C92.9438 175.869 96.095 176.17 99.1091 176.472Z" fill="#FF9933"/>
<path d="M189.809 118.838C189.809 118.838 210.908 122.006 228.992 137.245C240.501 146.901 248.173 161.837 254.202 176.019C260.504 190.956 265.573 207.099 267.902 223.394C269.957 237.425 268.176 255.53 252.421 257.793C242.83 259.151 233.925 251.456 227.622 244.516C214.744 230.485 204.879 212.531 196.933 194.728C196.796 194.577 196.796 194.426 196.659 194.124" fill="#FF9933"/>
<path d="M161.585 86.2485L162.681 118.083C162.681 118.083 157.337 119.743 153.775 120.044C153.364 121.855 153.227 132.718 171.312 132.718C189.26 132.718 194.055 119.894 194.055 119.894L185.561 117.781L181.314 88.2099" fill="#FFC8A3"/>
<path d="M119.387 196.84C119.387 196.84 123.086 177.227 129.662 160.329" stroke="#A87162" stroke-width="0.476044" stroke-miterlimit="10"/>
<path d="M222.822 142.374C224.192 142.223 225.973 141.167 227.344 141.921C228.577 142.524 229.262 143.731 230.769 144.033C231.591 144.184 231.865 142.826 231.043 142.675C229.536 142.374 228.851 140.865 227.344 140.412C225.699 139.96 224.329 140.865 222.685 140.865C222 141.016 222 142.374 222.822 142.374Z" fill="white"/>
<path d="M202.548 174.962C203.37 174.962 203.37 173.604 202.548 173.604C201.726 173.604 201.726 174.962 202.548 174.962Z" fill="white"/>
<path d="M231.594 196.688C231.183 197.744 230.772 199.102 231.594 200.007C232.279 200.912 233.375 201.214 234.06 202.119C234.608 202.723 235.43 201.818 234.882 201.214C234.334 200.611 233.649 200.158 233.101 199.705C232.279 199.102 232.279 198.348 232.69 197.442C232.964 196.537 231.868 195.783 231.594 196.688Z" fill="white"/>
<path d="M236.802 169.983C237.761 169.983 238.72 170.285 239.542 171.04C240.227 171.643 240.775 170.436 240.227 169.832C239.268 169.078 238.172 168.625 236.939 168.625C235.98 168.625 235.98 169.983 236.802 169.983Z" fill="white"/>
<path d="M164.734 195.179C163.775 197.141 163.364 199.705 164.734 201.667C165.282 202.421 166.104 201.365 165.556 200.762C164.597 199.404 165.145 197.291 165.83 195.934C166.104 195.179 165.008 194.425 164.734 195.179Z" fill="white"/>
<path d="M148.702 228.07C150.484 227.768 151.991 226.863 153.635 226.561C154.457 226.41 154.457 225.052 153.635 225.203C151.854 225.505 150.347 226.41 148.702 226.712C147.88 226.712 147.88 228.07 148.702 228.07Z" fill="white"/>
<path d="M100.205 201.214C100.205 203.176 101.438 204.684 103.219 205.288C104.041 205.59 104.315 204.232 103.493 203.93C102.397 203.477 101.438 202.572 101.438 201.063C101.438 200.309 100.205 200.309 100.205 201.214Z" fill="white"/>
<path d="M169.939 277.708C169.939 279.669 171.173 281.178 172.954 281.781C173.776 282.083 174.05 280.725 173.228 280.424C172.132 279.971 171.173 279.066 171.173 277.557C171.173 276.803 169.939 276.803 169.939 277.708Z" fill="white"/>
<path d="M183.23 248.136C185.696 246.476 188.163 244.967 190.766 247.23C191.451 247.834 191.999 246.627 191.451 246.023C188.437 243.459 185.559 245.118 182.682 246.929C181.86 247.532 182.545 248.588 183.23 248.136Z" fill="white"/>
<path d="M225.836 277.104C228.302 275.444 230.768 273.936 233.371 276.199C234.056 276.802 234.604 275.595 234.056 274.992C231.042 272.427 228.165 274.086 225.288 275.897C224.466 276.35 225.151 277.557 225.836 277.104Z" fill="white"/>
<path d="M117.056 277.104C119.522 275.444 121.988 273.936 124.592 276.199C125.277 276.802 125.825 275.595 125.277 274.992C122.262 272.427 119.385 274.086 116.508 275.897C115.823 276.35 116.371 277.557 117.056 277.104Z" fill="white"/>
<path d="M206.522 240.291C208.166 239.989 210.084 238.481 210.084 236.519C210.084 235.614 208.851 235.614 208.851 236.519C208.851 237.877 207.207 238.782 206.111 238.933C205.426 239.084 205.7 240.442 206.522 240.291Z" fill="white"/>
<path d="M216.251 283.893C217.895 283.591 219.814 282.083 219.814 280.121C219.814 279.216 218.581 279.216 218.581 280.121C218.581 281.479 216.936 282.384 215.84 282.535C215.155 282.686 215.566 284.044 216.251 283.893Z" fill="white"/>
<path d="M202.137 275.595C201.863 274.539 201.452 273.483 201.589 272.426C201.589 271.37 202.685 270.616 203.37 270.012C204.055 269.409 203.096 268.504 202.548 269.107C201.589 269.862 200.767 270.767 200.493 272.125C200.219 273.332 200.767 274.84 201.041 276.047C201.178 276.802 202.274 276.5 202.137 275.595Z" fill="white"/>
<path d="M130.484 197.14C131.717 198.197 133.361 198.347 134.594 197.14C135.142 196.537 134.32 195.632 133.772 196.235C133.087 196.839 132.128 196.839 131.443 196.235C130.758 195.632 129.936 196.537 130.484 197.14Z" fill="white"/>
<path d="M109.247 166.06C110.618 164.853 111.44 163.344 112.125 161.685C112.536 160.93 111.44 160.176 111.029 160.93C110.206 162.439 109.521 163.948 108.288 165.004C107.74 165.758 108.562 166.663 109.247 166.06Z" fill="white"/>
<path d="M155.964 154.594C156.786 154.142 157.883 154.142 158.842 154.142C159.664 154.142 159.664 152.784 158.842 152.784C157.609 152.784 156.375 152.784 155.416 153.387C154.731 153.84 155.279 155.047 155.964 154.594Z" fill="white"/>
<path d="M146.239 139.807C147.198 138.751 149.117 139.204 150.35 139.204C151.172 139.204 151.172 137.846 150.35 137.846C148.706 137.846 146.787 137.393 145.417 138.751C144.732 139.355 145.691 140.411 146.239 139.807Z" fill="white"/>
<path d="M196.111 142.826C195.974 144.787 195.152 146.597 195.289 148.559C195.289 150.52 196.796 151.576 198.303 152.18C198.988 152.482 199.399 151.124 198.577 150.822C196.796 150.068 196.248 148.861 196.659 146.899C196.933 145.541 197.344 144.183 197.344 142.675C197.481 141.92 196.248 141.92 196.111 142.826Z" fill="white"/>
<path d="M183.505 174.057C184.053 174.057 184.464 174.207 185.012 174.358C185.834 174.66 186.108 173.302 185.286 173C184.738 172.85 184.053 172.699 183.505 172.548C182.683 172.699 182.683 174.057 183.505 174.057Z" fill="white"/>
<path d="M237.21 215.698C238.443 215.397 239.128 216.453 239.128 217.811C239.128 218.716 240.361 218.716 240.361 217.811C240.361 216.754 240.087 215.849 239.539 215.095C238.854 214.19 237.895 214.19 236.936 214.34C235.977 214.491 236.388 215.849 237.21 215.698Z" fill="white"/>
<path d="M249.953 198.649C251.049 198.649 252.008 198.649 253.104 198.649C253.926 198.649 253.926 197.291 253.104 197.291C252.008 197.291 251.049 197.291 249.953 197.291C249.268 197.291 249.268 198.649 249.953 198.649Z" fill="white"/>
<path d="M145.554 284.798C145.143 285.854 144.458 286.609 143.773 287.363C143.225 287.966 144.047 289.023 144.595 288.268C145.417 287.363 146.376 286.307 146.787 285.1C147.061 284.345 145.828 283.893 145.554 284.798Z" fill="white"/>
<path d="M214.056 79.0046L198.163 70.7065L197.752 71.4609L213.782 79.9099C213.919 79.6081 213.919 79.3064 214.056 79.0046Z" fill="#581550"/>
<path d="M158.434 49.7357C158.434 49.7357 136.513 50.3392 142.267 72.5177C148.022 94.6962 162.133 63.767 162.133 63.767L168.436 44.0024L158.434 49.7357Z" fill="black"/>
<path d="M193.78 110.388C212.413 103.297 204.877 64.8236 204.877 64.8236L202.274 55.0167C202.274 55.0167 189.67 48.9818 189.396 48.8309C189.122 48.68 178.846 43.7012 177.065 43.5503C175.147 43.3994 171.859 51.094 171.859 51.094L160.898 72.3673C159.391 62.7113 150.76 61.5043 150.76 71.6129C150.76 83.6829 161.583 86.0969 161.583 86.0969C161.583 86.0969 169.256 119.893 193.78 110.388Z" fill="#FFC8A3"/>
<path d="M158.43 69.6517C155.416 69.1991 152.539 72.0657 152.813 75.5358C152.813 76.1393 153.635 76.1393 153.635 75.5358C153.361 72.6692 155.69 70.1043 158.293 70.5569C158.704 70.5569 158.978 69.6517 158.43 69.6517Z" fill="#1C232B"/>
<path d="M154.321 72.0657C155.554 72.6692 156.513 73.8762 156.924 75.2341C157.061 75.6867 157.746 75.5358 157.609 75.0832C157.198 73.4236 156.102 72.0657 154.595 71.3113C154.184 71.1605 153.773 71.9148 154.321 72.0657Z" fill="#1C232B"/>
<path d="M160.762 72.518L171.722 51.2446C171.722 51.2446 175.01 43.55 176.929 43.7009C178.847 43.8518 188.985 48.8307 189.259 48.9815C189.533 49.1324 202.138 55.1674 202.138 55.1674L204.741 64.9742C204.741 64.9742 205.152 67.0865 205.563 70.5566C195.835 67.5391 191.862 55.9218 191.862 55.9218C188.163 67.0865 175.01 59.0901 175.01 59.0901C176.517 72.8197 160.762 72.518 160.762 72.518Z" fill="#FFC8A3"/>
<path d="M191.861 55.0159C191.861 55.0159 197.341 71.0086 211.179 70.4051C225.016 69.8016 225.975 54.4124 216.111 49.4336C216.111 49.4336 223.92 36.1566 214.467 29.8199C205.013 23.4832 198.026 31.7813 198.026 31.7813C198.026 31.7813 191.45 13.8272 180.215 17.7499C168.981 21.6727 170.077 34.1953 170.077 34.1953C170.077 34.1953 156.376 27.5568 152.677 36.0057C148.978 44.4547 154.184 49.8862 154.184 49.8862L151.307 67.3877C151.307 67.3877 154.869 58.6369 160.76 72.3665C160.76 72.3665 176.516 71.9139 175.146 58.0334C175.146 58.1843 188.298 66.1807 191.861 55.0159Z" fill="black"/>
<path d="M194.973 79.1452L194.32 79.3743L197.108 89.0057L197.761 88.7766L194.973 79.1452Z" fill="#160539"/>
<path d="M188.416 74.9644L182.338 78.4436L183.286 80.4517L189.364 76.9725L188.416 74.9644Z" fill="#160539"/>
<path d="M200.422 71.514L200.123 73.7529L206.222 74.7421L206.522 72.5032L200.422 71.514Z" fill="#160539"/>
<path d="M188.711 81.7212C188.985 82.4756 188.574 83.23 188.026 83.5318C187.478 83.6826 186.793 83.23 186.519 82.4756C186.245 81.7212 186.656 80.9669 187.204 80.6651C187.889 80.3634 188.574 80.816 188.711 81.7212Z" fill="#160539"/>
<path d="M203.645 76.5911C203.919 77.3455 203.508 78.0999 202.959 78.4016C202.411 78.5525 201.726 78.0999 201.452 77.3455C201.178 76.5911 201.589 75.8368 202.137 75.535C202.823 75.3841 203.508 75.8368 203.645 76.5911Z" fill="#160539"/>
<path d="M193.779 88.5106C194.19 90.1702 192.683 92.2825 190.217 93.0368C187.751 93.7912 185.422 93.1877 184.874 91.5281C184.463 89.8685 185.97 87.7562 188.436 87.0018C190.902 86.0966 193.231 86.7001 193.779 88.5106Z" fill="#FFC8A3"/>
<path d="M203.783 81.7212C201.317 82.4755 199.673 84.5878 200.221 86.2474C200.632 87.907 203.098 88.6614 205.564 87.7561C205.838 87.6053 206.249 87.4544 206.523 87.3035C206.66 85.1913 206.66 83.2299 206.66 81.2686C205.701 81.2686 204.742 81.4194 203.783 81.7212Z" fill="#FFC8A3"/>
<path d="M187.207 91.0758C182.549 92.2827 177.753 89.4161 176.383 84.2864C175.698 81.7215 175.972 79.0058 177.068 76.5918C178.164 74.1778 180.082 72.5182 182.412 71.7638C187.207 70.1042 192.276 73.1217 193.783 78.4023C194.468 80.9672 194.194 83.6829 193.098 86.0969C192.002 88.5109 190.084 90.1705 187.755 90.9249C187.481 90.9249 187.344 90.9249 187.207 91.0758ZM183.097 72.3673C182.96 72.3673 182.823 72.5182 182.686 72.5182C180.493 73.2725 178.712 74.7813 177.753 77.0444C176.657 79.1567 176.52 81.7215 177.068 84.1355C178.438 88.9635 183.097 91.8301 187.618 90.3214C189.81 89.567 191.591 88.0583 192.55 85.7951C193.646 83.6829 193.783 81.118 193.098 78.704C191.728 73.876 187.344 71.1603 183.097 72.3673Z" fill="#581550"/>
<path d="M207.758 87.1524C203.099 88.3594 198.304 85.4928 196.934 80.3631C196.249 77.7982 196.523 75.0824 197.619 72.6684C198.715 70.2544 200.633 68.5948 202.962 67.8405C207.758 66.1808 212.827 69.1983 214.334 74.4789C215.841 79.7596 213.101 85.3419 208.306 87.0015C208.032 87.0015 207.895 87.0015 207.758 87.1524ZM203.51 68.2931C203.373 68.2931 203.236 68.4439 203.099 68.4439C200.907 69.1983 199.126 70.7071 198.167 72.9702C197.071 75.0824 196.934 77.6473 197.619 80.0613C198.989 84.8893 203.647 87.7559 208.169 86.2472C212.553 84.7384 215.156 79.6087 213.786 74.6298C212.279 69.9527 207.895 67.237 203.51 68.2931Z" fill="#581550"/>
<path d="M196.477 78.2222L193.469 79.2556L193.673 79.9758L196.681 78.9423L196.477 78.2222Z" fill="#581550"/>
<path d="M176.521 79.6088L160.628 71.3108L160.217 72.0652L176.247 80.5141C176.384 80.2123 176.521 79.9106 176.521 79.6088Z" fill="#581550"/>
<path d="M215.838 53.2064C218.442 56.6765 222.004 63.7676 216.661 66.3325C216.524 66.4834 216.524 66.7851 216.798 66.6342C217.894 66.1816 218.99 65.2764 219.538 64.0694C219.949 63.0133 219.949 61.6554 219.812 60.4484C219.264 57.7326 217.894 55.0169 216.25 52.9046C215.838 52.7538 215.701 52.9046 215.838 53.2064Z" fill="white"/>
<path d="M214.607 66.7842C214.47 66.935 214.47 66.935 214.607 66.7842C214.47 66.935 214.47 66.935 214.47 66.935C214.47 66.935 214.47 66.935 214.333 66.935H214.196H214.059C213.922 66.935 213.922 67.0859 213.922 67.0859C213.922 67.2368 214.059 67.2368 214.059 67.2368C214.333 67.2368 214.47 67.2368 214.607 67.0859C214.744 66.935 214.881 66.7841 215.018 66.6333C215.018 66.4824 215.018 66.4824 215.018 66.3315C214.744 66.6333 214.607 66.7842 214.607 66.7842Z" fill="white"/>
<path d="M208.715 67.5391C208.03 67.5391 207.482 67.2373 206.934 67.0864C206.66 67.0864 206.66 67.3882 206.797 67.3882C207.482 67.5391 208.03 67.8408 208.578 67.8408C208.715 67.8408 208.715 67.6899 208.715 67.6899C208.852 67.6899 208.852 67.5391 208.715 67.5391Z" fill="white"/>
<path d="M194.19 55.9209C194.19 55.0157 193.916 54.2613 193.642 53.5069C193.231 52.6017 192.82 51.8473 192.135 51.2438C191.313 50.3386 189.532 49.1316 188.71 50.6403C188.299 51.3947 188.299 52.2999 188.299 53.0543C188.299 53.3561 188.573 53.3561 188.573 53.0543C188.573 52.1491 188.573 50.0368 189.806 50.3386C191.176 50.6403 192.272 52.1491 192.957 53.3561C193.368 54.1104 193.642 55.0157 193.505 55.7701C193.916 56.2227 194.19 56.2227 194.19 55.9209Z" fill="white"/>
<path d="M171.997 55.6201C172.271 57.2797 172.545 58.9393 172.271 60.599C171.997 62.1077 171.312 63.4656 170.353 64.6726C167.613 67.5392 163.502 68.7462 159.803 68.7462C159.529 68.7462 159.529 69.1988 159.803 69.0479C163.639 69.0479 167.887 67.6901 170.627 64.6726C171.723 63.6165 172.408 62.2586 172.545 60.599C172.819 58.9393 172.545 57.1289 172.271 55.3184C172.271 55.3184 171.997 55.4692 171.997 55.6201Z" fill="white"/>
<path d="M195.012 31.6308C195.423 28.7642 193.368 25.8976 191.587 24.0871C189.258 21.8239 186.107 20.6169 182.955 20.6169C179.941 20.6169 177.475 21.6731 175.831 24.3888C175.009 25.7467 174.461 27.4063 174.187 29.0659C173.913 30.8764 173.776 32.6869 174.324 34.4974C174.324 34.7992 174.735 34.6483 174.598 34.3465C174.187 32.8378 174.324 31.1782 174.461 29.6694C174.598 28.0098 175.009 26.5011 175.831 25.1432C176.653 23.7853 177.749 22.4274 179.119 21.8239C180.352 21.3713 181.585 21.2204 182.955 21.2204C185.833 21.2204 188.847 22.4274 191.039 24.3888C192.82 26.0484 195.012 28.915 194.601 31.7817C194.601 31.7817 194.875 31.9325 195.012 31.6308Z" fill="white"/>
<path d="M173.914 35.5534C173.64 36.006 173.64 36.4586 173.366 36.7604C173.229 37.213 172.955 37.5148 172.544 37.6657C172.27 37.6657 172.407 38.1183 172.681 37.9674C173.64 37.6657 173.777 36.4586 174.188 35.5534C174.325 35.5534 174.051 35.4025 173.914 35.5534Z" fill="white"/>
<path d="M153.775 37.0624C152.953 39.1746 151.994 41.5886 152.679 43.8517C152.953 45.0587 153.638 46.1148 154.323 47.0201C155.008 48.0762 155.83 49.1323 156.652 50.3393C156.789 50.4902 157.063 50.3393 156.926 50.1885C155.693 48.378 154.186 46.5675 153.227 44.4552C152.268 42.0412 153.09 39.4764 154.049 37.3641C154.049 37.0624 153.775 36.9115 153.775 37.0624Z" fill="white"/>
<path d="M214.469 48.9815C214.195 48.5288 214.058 48.0762 214.058 47.4727C214.058 47.0201 214.194 46.4166 214.606 45.964C214.743 45.8131 214.469 45.5113 214.332 45.6622C213.92 46.1148 213.783 46.7183 213.646 47.3218C213.646 47.9253 213.646 48.6797 214.058 49.1323C214.332 49.4341 214.606 49.1323 214.469 48.9815Z" fill="white"/>
<path d="M216.11 43.2487C216.247 42.947 216.384 42.4944 216.521 42.1926C216.521 42.0417 216.521 42.0417 216.384 41.8909C216.247 41.8909 216.247 41.8909 216.11 42.0417C216.11 42.1926 215.973 42.3435 215.973 42.4944V42.6452C215.973 42.7961 215.836 42.7961 215.836 42.947C215.836 43.0979 215.836 43.0979 215.836 43.2487C215.973 43.3996 216.11 43.3996 216.11 43.2487Z" fill="white"/>
<path d="M173.365 40.0794C172.817 36.911 169.803 34.0444 167.885 31.7813C165.693 29.2164 163.227 26.1989 160.486 24.3884C160.349 24.3884 160.486 24.2375 160.623 24.2375C163.775 26.1989 166.378 29.5182 168.844 32.5357C170.625 34.6479 173.228 37.2128 173.639 40.0794C173.502 40.2303 173.365 40.2303 173.365 40.0794Z" fill="#581550"/>
<path d="M175.01 40.5324C173.914 37.6658 171.448 35.8553 169.256 33.8939C166.516 31.4799 163.502 29.5185 160.077 28.7642C159.94 28.7642 160.077 28.6133 160.077 28.6133C163.228 29.2168 166.105 30.8764 168.571 32.9886C171.037 35.1009 173.914 37.2131 175.147 40.3815C175.147 40.5324 175.01 40.5324 175.01 40.5324Z" fill="#581550"/>
<path d="M184.74 112.047C184.74 112.047 176.383 109.935 173.643 103.146C173.643 103.146 175.835 116.272 185.288 117.629L184.74 112.047Z" fill="#160539"/>
<path d="M230.912 231.993C230.912 231.993 249.271 280.574 262.15 271.069C275.028 261.413 262.561 204.986 262.561 204.986" fill="#FFC8A3"/>
<path d="M211.318 126.079C211.318 126.079 239.953 139.657 250.776 157.913C255.572 166.06 266.806 191.86 272.971 217.207C260.23 237.122 242.282 239.385 227.074 235.764C217.347 207.853 214.058 174.509 214.058 174.509" fill="#FF9933"/>
<path d="M277.354 192.613C276.532 190.803 275.984 189.445 275.984 186.126C275.984 182.807 277.217 179.035 278.039 175.715C278.725 173.151 279.41 170.586 280.095 168.021C280.369 167.266 280.643 166.361 281.328 166.059C282.013 165.758 282.698 166.21 283.246 166.814C283.657 167.417 283.794 168.172 283.931 168.926C284.068 170.284 284.068 171.642 283.794 173C283.657 173.754 283.52 174.508 283.52 175.414C283.52 176.168 283.931 177.073 284.616 177.375C286.123 178.129 287.356 176.017 288.863 175.565C289 175.565 289.274 175.565 289.411 175.565C289.685 175.715 289.822 176.168 289.959 176.47C290.507 179.487 288.589 182.354 286.945 184.919C285.301 187.333 283.931 191.708 282.287 194.122" fill="#FFC8A3"/>
<path d="M305.99 131.811L287.22 182.807L264.203 163.042C262.833 163.042 262.011 161.986 262.285 160.779L276.808 113.254C277.082 112.5 277.904 112.047 278.726 112.047L305.99 131.811Z" fill="#152E4A"/>
<path d="M300.787 133.772L282.976 182.052L261.192 163.344C259.822 163.344 259 162.288 259.411 161.232L273.112 116.422C273.386 115.667 274.208 115.215 275.03 114.913L300.787 133.772Z" fill="#FFF1DC"/>
<path d="M299.003 131.057L297.633 130.001L265.299 130.454L254.75 165.457L290.098 163.495L299.003 131.057Z" fill="#EFCEA3"/>
<path d="M300.785 133.773L275.027 115.065L277.082 114.159L302.977 132.868L285.166 181.299L283.796 180.092L300.785 133.773Z" fill="#EFCEA3"/>
<path d="M305.991 131.812L287.221 182.808L249.955 183.713C248.585 183.713 247.763 182.657 248.037 181.45L262.56 133.773C262.834 133.019 263.656 132.566 264.478 132.566L305.991 131.812Z" fill="#152E4A"/>
<path opacity="0.35" d="M297.497 137.093L294.346 145.843L264.342 147.05L266.945 138.149L297.497 137.093Z" fill="#2A3047"/>
<path d="M285.303 194.576C287.632 192.162 291.331 186.73 292.975 177.678C292.975 176.018 292.016 176.018 291.331 174.509C290.372 172.548 289.276 169.983 287.358 168.927C286.125 168.324 284.892 167.72 283.658 167.117C282.973 166.815 282.014 166.664 281.74 167.267C281.466 167.72 281.74 168.324 282.014 168.776C283.521 171.341 286.81 172.548 287.769 175.566C287.906 175.867 287.906 176.018 287.769 176.32C287.632 176.622 287.495 176.773 287.358 176.923C285.714 178.432 284.206 179.941 282.836 181.751C280.644 184.769 278.452 189.597 280.644 193.369" fill="#FFC8A3"/>
<path d="M291.742 182.355C291.742 182.355 294.482 173.453 294.208 168.625C294.071 165.759 292.838 163.043 291.468 160.478C291.194 160.025 291.057 159.573 290.646 159.271C290.235 158.969 289.687 158.969 289.413 159.422C289.276 159.573 289.276 159.875 289.276 160.176C289.139 163.345 290.509 166.362 290.783 169.531C290.92 170.888 289.276 177.074 289.139 178.885" fill="#FFC8A3"/>
<path d="M248.721 251.455C251.187 241.196 277.356 192.614 277.356 192.614L282.973 187.786L285.302 194.575C285.302 194.575 279.685 269.56 262.559 274.086C247.488 278.16 239.131 251.304 239.131 251.304" fill="#FFC8A3"/>
<path d="M256.806 232.596C256.806 232.596 256.395 233.652 255.847 235.311C255.162 236.82 254.34 238.932 253.518 241.045C252.696 243.157 251.737 245.118 250.915 246.627C250.093 248.136 249.545 249.041 249.545 249.041C249.545 249.041 249.819 247.985 250.367 246.325C250.915 244.666 251.737 242.553 252.696 240.592C253.107 239.536 253.518 238.48 254.066 237.575C254.477 236.669 255.025 235.764 255.436 235.01C256.121 233.501 256.806 232.596 256.806 232.596Z" fill="#DFEAEF"/>
<path d="M194.055 242.101L197.206 242.553C203.235 243.308 208.578 238.631 209.263 232.143L210.085 224.599L185.424 221.28L184.602 228.824C183.78 235.462 188.027 241.346 194.055 242.101Z" fill="white"/>
<path d="M177.067 229.125C177.478 225.655 180.355 223.09 183.506 223.543L192.822 224.75L191.452 237.574L182.136 236.367C178.985 235.764 176.656 232.596 177.067 229.125ZM190.493 226.711L183.232 225.806C181.177 225.504 179.396 227.164 179.122 229.427C178.848 231.69 180.355 233.652 182.41 233.953L189.671 234.859L190.493 226.711Z" fill="white"/>
<path d="M181.45 236.669C182.957 235.915 182.409 232.746 180.491 233.048C181.039 232.746 181.587 232.143 181.724 231.388C181.861 230.332 180.765 229.125 179.258 229.427C179.806 228.974 179.943 227.918 179.395 227.164C178.847 226.41 177.888 226.259 177.065 226.41C175.284 226.56 173.64 227.617 172.133 228.673C169.393 230.483 166.927 232.595 164.461 234.859C163.365 235.764 162.132 236.669 161.036 237.725C160.762 238.027 160.214 238.63 159.803 238.781L110.069 237.423L121.852 188.54L88.0113 179.186C88.0113 179.186 65.8162 253.718 75.5437 261.262C94.5876 276.5 159.392 249.946 161.584 249.041C161.995 248.89 162.406 248.739 162.817 248.588C169.941 250.7 174.462 244.364 176.243 242.101C176.517 241.799 177.065 241.346 177.34 241.648C177.477 241.799 177.477 241.95 177.614 242.251C178.299 244.515 180.491 242.553 181.313 241.648C181.998 240.894 182.546 240.139 182.82 239.083C182.82 238.027 182.409 236.82 181.45 236.669Z" fill="#FFC8A3"/>
<path d="M139.528 125.323C124.183 130 109.797 140.712 99.1108 156.102C88.2873 171.642 78.8338 195.933 72.3945 222.788C72.3945 222.788 101.988 232.444 119.114 229.728C122.402 220.978 134.458 172.396 134.458 172.396" fill="#FF9933"/>
<path d="M119.115 229.729C122.814 219.771 130.35 183.863 134.46 172.396" stroke="white" stroke-width="0.476044" stroke-miterlimit="10" stroke-linejoin="round"/>
</svg>
